<?xml version="1.0" standalone="no"?>
<!DOCTYPE svg PUBLIC "-//W3C//DTD SVG 20010904//EN"
 "http://www.w3.org/TR/2001/REC-SVG-20010904/DTD/svg10.dtd">
<svg version="1.0" xmlns="http://www.w3.org/2000/svg"
 width="512.000000pt" height="512.000000pt" viewBox="0 0 512.000000 512.000000"
 preserveAspectRatio="xMidYMid meet">

<g transform="translate(0.000000,512.000000) scale(0.100000,-0.100000)"
fill="#000000" stroke="none">
<path d="M1305 4375 l-25 -24 0 -1191 0 -1191 25 -24 24 -25 1096 0 1095 0 0
-360 0 -360 -160 0 -160 0 0 -80 0 -80 640 0 640 0 0 -80 0 -80 -640 0 -640 0
0 -80 0 -80 695 0 696 0 24 25 25 24 0 576 0 575 135 0 c131 0 137 1 160 25
l25 24 0 1191 0 1191 -25 24 -24 25 -1791 0 -1791 0 -24 -25z m3495 -295 l0
-160 -1680 0 -1680 0 0 160 0 160 1680 0 1680 0 0 -160z m0 -1160 l0 -840
-1680 0 -1680 0 0 840 0 840 1680 0 1680 0 0 -840z m-960 -1095 c0 -88 2 -98
25 -120 32 -33 78 -33 110 0 23 22 25 32 25 120 l0 95 80 0 80 0 0 -360 0
-360 -240 0 -240 0 0 360 0 360 80 0 80 0 0 -95z m640 -265 l0 -360 -80 0 -80
0 0 360 0 360 80 0 80 0 0 -360z"/>
<path d="M1545 4135 c-50 -49 -15 -135 55 -135 41 0 80 39 80 80 0 41 -39 80
-80 80 -19 0 -40 -9 -55 -25z"/>
<path d="M1785 4135 c-50 -49 -15 -135 55 -135 41 0 80 39 80 80 0 41 -39 80
-80 80 -19 0 -40 -9 -55 -25z"/>
<path d="M2025 4135 c-50 -49 -15 -135 55 -135 41 0 80 39 80 80 0 41 -39 80
-80 80 -19 0 -40 -9 -55 -25z"/>
<path d="M1600 3520 l0 -80 120 0 120 0 0 80 0 80 -120 0 -120 0 0 -80z"/>
<path d="M2080 3520 l0 -80 280 0 280 0 0 80 0 80 -280 0 -280 0 0 -80z"/>
<path d="M2800 3520 l0 -80 120 0 120 0 0 80 0 80 -120 0 -120 0 0 -80z"/>
<path d="M3846 2992 c-86 -257 -156 -472 -156 -478 0 -10 138 -59 146 -51 7 7
314 930 314 943 0 11 -109 54 -136 54 -7 0 -76 -191 -168 -468z"/>
<path d="M3407 3122 c-168 -170 -168 -154 3 -326 l130 -131 57 57 58 58 -90
90 -90 90 88 88 c48 48 87 92 87 98 0 13 -93 104 -106 104 -5 0 -67 -58 -137
-128z"/>
<path d="M4237 3202 c-26 -26 -47 -52 -47 -57 0 -5 39 -49 87 -97 l88 -88 -90
-90 -90 -90 58 -58 57 -57 130 131 c171 172 171 156 3 326 -70 70 -132 128
-138 128 -6 0 -32 -22 -58 -48z"/>
<path d="M1600 3120 l0 -80 120 0 120 0 0 80 0 80 -120 0 -120 0 0 -80z"/>
<path d="M2080 3120 l0 -80 160 0 160 0 0 80 0 80 -160 0 -160 0 0 -80z"/>
<path d="M2560 3120 l0 -80 240 0 240 0 0 80 0 80 -240 0 -240 0 0 -80z"/>
<path d="M1600 2720 l0 -80 120 0 120 0 0 80 0 80 -120 0 -120 0 0 -80z"/>
<path d="M2080 2720 l0 -80 480 0 480 0 0 80 0 80 -480 0 -480 0 0 -80z"/>
<path d="M1600 2320 l0 -80 120 0 120 0 0 80 0 80 -120 0 -120 0 0 -80z"/>
<path d="M2080 2320 l0 -80 160 0 160 0 0 80 0 80 -160 0 -160 0 0 -80z"/>
<path d="M2560 2320 l0 -80 240 0 240 0 0 80 0 80 -240 0 -240 0 0 -80z"/>
<path d="M585 2695 l-25 -24 0 -736 0 -735 -175 0 -176 0 -26 -26 c-24 -24
-25 -30 -20 -91 13 -139 96 -257 225 -321 l76 -37 1135 0 1136 0 67 32 c37 17
87 50 112 74 63 57 114 163 123 251 5 62 4 68 -20 92 l-26 26 -176 0 -175 0 0
280 0 280 -80 0 -80 0 0 -280 0 -280 -880 0 -880 0 0 680 0 680 200 0 200 0 0
80 0 80 -255 0 -256 0 -24 -25z m781 -1695 l44 -40 190 0 190 0 44 40 43 40
492 0 c439 0 491 -2 491 -16 0 -27 -101 -119 -146 -132 -60 -17 -2168 -17
-2228 0 -45 13 -146 105 -146 132 0 14 52 16 491 16 l492 0 43 -40z"/>
</g>
</svg>
