<?xml version="1.0" standalone="no"?>
<!DOCTYPE svg PUBLIC "-//W3C//DTD SVG 20010904//EN"
 "http://www.w3.org/TR/2001/REC-SVG-20010904/DTD/svg10.dtd">
<svg version="1.0" xmlns="http://www.w3.org/2000/svg"
 width="512.000000pt" height="512.000000pt" viewBox="0 0 512.000000 512.000000"
 preserveAspectRatio="xMidYMid meet">

<g transform="translate(0.000000,512.000000) scale(0.100000,-0.100000)"
fill="#000000" stroke="none">
<path d="M1360 4947 c-49 -16 -133 -102 -148 -153 -28 -94 -8 -169 63 -239 69
-70 153 -92 235 -64 l32 12 149 -149 149 -149 0 -261 0 -262 -55 -7 c-75 -9
-183 -65 -234 -121 -53 -56 -98 -150 -107 -220 l-6 -54 -142 0 -141 0 -109
109 c-109 109 -109 109 -97 141 28 82 6 166 -64 235 -101 102 -229 102 -330 0
-102 -101 -102 -229 0 -330 69 -70 153 -92 235 -64 l32 12 132 -132 131 -131
178 0 177 0 0 -80 0 -80 -254 0 -254 0 -210 -174 -210 -174 -39 13 c-87 32
-167 12 -238 -60 -102 -101 -102 -229 0 -330 70 -71 145 -91 239 -63 59 18
138 99 155 161 13 43 11 111 -2 147 -4 10 50 61 177 168 l184 152 226 0 226 0
0 -80 0 -80 -120 0 -120 0 0 -80 0 -80 120 0 120 0 0 -80 0 -80 -360 0 -360 0
0 -80 0 -80 360 0 360 0 0 -80 0 -80 -222 0 -223 0 -158 -239 -158 -238 -61
-6 c-78 -7 -142 -46 -183 -111 -27 -45 -30 -58 -30 -132 0 -75 3 -86 30 -125
17 -24 50 -57 74 -74 39 -27 50 -30 125 -30 74 0 87 3 132 30 67 42 105 105
111 187 4 56 1 70 -26 123 l-31 60 132 198 131 197 177 0 178 0 6 -54 c9 -70
54 -164 107 -220 51 -56 159 -112 234 -121 l55 -7 0 -262 0 -261 -149 -149
-149 -149 -32 12 c-82 28 -166 6 -235 -64 -102 -101 -102 -229 0 -330 101
-102 229 -102 330 0 70 69 92 153 64 235 l-12 32 172 172 171 171 0 298 0 297
80 0 80 0 0 -240 0 -240 80 0 80 0 0 240 0 240 80 0 80 0 0 -342 0 -343 239
-149 239 -150 4 -67 c8 -113 71 -194 175 -225 170 -52 339 105 303 282 -22
106 -108 181 -219 191 -49 5 -68 1 -116 -21 l-58 -26 -203 127 -204 127 0 298
0 298 80 0 80 0 0 -120 0 -120 80 0 80 0 0 120 0 120 80 0 80 0 0 -320 0 -320
289 0 289 0 12 -30 c17 -42 90 -104 138 -118 112 -34 233 17 290 123 23 41 23
169 0 211 -42 76 -134 134 -216 134 -83 0 -184 -62 -212 -130 l-12 -30 -209 0
-209 0 0 239 0 239 55 7 c75 9 183 65 234 121 53 56 98 150 107 220 l6 54 342
0 342 0 68 -69 c67 -68 68 -70 57 -102 -49 -141 75 -309 229 -309 124 0 240
116 240 240 0 63 -23 114 -75 165 -69 70 -153 92 -234 64 -33 -12 -34 -11
-125 80 l-91 91 -378 0 -377 0 0 80 0 80 200 0 200 0 0 80 0 80 -200 0 -200 0
0 80 0 80 210 0 210 0 228 113 227 114 34 -24 c119 -81 277 -37 347 97 27 51
25 152 -4 206 -41 80 -128 134 -214 134 -123 0 -238 -115 -238 -239 0 -30 -4
-33 -210 -136 l-210 -105 -190 0 -190 0 0 80 0 80 120 0 120 0 0 80 0 80 -120
0 -120 0 0 80 0 80 177 0 178 0 131 131 132 132 32 -12 c142 -49 310 75 310
229 0 124 -116 240 -240 240 -63 0 -114 -23 -165 -75 -70 -69 -92 -153 -64
-235 12 -32 12 -32 -97 -141 l-109 -109 -141 0 -142 0 -6 54 c-9 70 -54 164
-107 220 -51 56 -159 112 -234 121 l-55 7 0 102 0 101 229 229 229 229 32 -12
c142 -49 310 75 310 229 0 124 -116 240 -240 240 -63 0 -114 -23 -165 -75 -70
-69 -92 -153 -64 -235 l12 -32 -252 -252 -251 -251 0 -138 0 -137 -80 0 -80 0
0 120 0 120 -80 0 -80 0 0 -120 0 -120 -80 0 -80 0 0 289 0 289 30 12 c68 28
130 129 130 212 0 82 -58 174 -134 216 -43 23 -170 23 -213 -1 -104 -56 -155
-177 -121 -289 14 -48 76 -121 118 -138 l30 -12 0 -289 0 -289 -80 0 -80 0 0
120 0 120 -80 0 -80 0 0 -120 0 -120 -80 0 -80 0 0 297 0 298 -171 171 -172
172 12 32 c28 82 6 166 -64 235 -70 71 -152 91 -245 62z m135 -172 c50 -49 15
-135 -55 -135 -41 0 -80 39 -80 80 0 41 39 80 80 80 19 0 40 -9 55 -25z m2400
-160 c16 -15 25 -36 25 -55 0 -19 -9 -40 -25 -55 -15 -16 -36 -25 -55 -25 -19
0 -40 9 -55 25 -16 15 -25 36 -25 55 0 19 9 40 25 55 15 16 36 25 55 25 19 0
40 -9 55 -25z m-1280 -80 c16 -15 25 -36 25 -55 0 -19 -9 -40 -25 -55 -49 -50
-135 -15 -135 55 0 41 39 80 80 80 19 0 40 -9 55 -25z m-1840 -880 c50 -49 15
-135 -55 -135 -41 0 -80 39 -80 80 0 41 39 80 80 80 19 0 40 -9 55 -25z m3680
0 c16 -15 25 -36 25 -55 0 -19 -9 -40 -25 -55 -15 -16 -36 -25 -55 -25 -19 0
-40 9 -55 25 -16 15 -25 36 -25 55 0 19 9 40 25 55 15 16 36 25 55 25 19 0 40
-9 55 -25z m-1101 -147 c55 -16 138 -99 154 -154 17 -59 17 -1529 0 -1588 -16
-55 -99 -138 -154 -154 -59 -17 -1529 -17 -1588 0 -55 16 -138 99 -154 154
-17 59 -17 1529 0 1588 15 51 99 137 148 153 52 16 1538 17 1594 1z m1421
-573 c16 -15 25 -36 25 -55 0 -19 -9 -40 -25 -55 -15 -16 -36 -25 -55 -25 -19
0 -40 9 -55 25 -16 15 -25 36 -25 55 0 19 9 40 25 55 15 16 36 25 55 25 19 0
40 -9 55 -25z m-4320 -480 c50 -49 15 -135 -55 -135 -41 0 -80 39 -80 80 0 41
39 80 80 80 19 0 40 -9 55 -25z m4320 -800 c50 -49 15 -135 -55 -135 -41 0
-80 39 -80 80 0 41 39 80 80 80 19 0 40 -9 55 -25z m-4080 -320 c16 -15 25
-36 25 -55 0 -19 -9 -40 -25 -55 -49 -50 -135 -15 -135 55 0 41 39 80 80 80
19 0 40 -9 55 -25z m3280 -400 c50 -49 15 -135 -55 -135 -41 0 -80 39 -80 80
0 41 39 80 80 80 19 0 40 -9 55 -25z m-2480 -480 c50 -49 15 -135 -55 -135
-41 0 -80 39 -80 80 0 41 39 80 80 80 19 0 40 -9 55 -25z m1760 0 c50 -49 15
-135 -55 -135 -41 0 -80 39 -80 80 0 41 39 80 80 80 19 0 40 -9 55 -25z"/>
<path d="M2466 3350 c-63 -16 -153 -70 -197 -117 -22 -24 -55 -74 -71 -110
-26 -55 -32 -81 -36 -164 -5 -97 -5 -98 -34 -110 -40 -16 -102 -90 -116 -137
-17 -56 -17 -729 0 -786 16 -55 99 -138 154 -154 29 -8 147 -12 396 -12 412 0
420 1 491 80 24 26 49 66 55 88 17 55 17 729 0 784 -14 47 -76 121 -116 137
-29 12 -29 13 -34 112 -4 89 -9 107 -41 173 -67 134 -188 215 -335 222 -42 2
-94 -1 -116 -6z m168 -162 c55 -16 138 -99 154 -154 7 -23 12 -67 12 -98 l0
-56 -240 0 -240 0 0 56 c0 87 18 133 75 189 70 71 145 90 239 63z m301 -493
l25 -24 0 -351 0 -351 -25 -24 -24 -25 -351 0 -351 0 -24 25 -25 24 0 351 0
351 25 24 24 25 351 0 351 0 24 -25z"/>
<path d="M2479 2626 c-122 -43 -184 -170 -148 -301 12 -43 106 -145 134 -145
12 0 15 -16 15 -90 l0 -90 80 0 80 0 0 89 0 89 30 12 c42 17 104 90 118 138
56 188 -126 364 -309 298z m136 -171 c50 -49 15 -135 -55 -135 -19 0 -40 9
-55 25 -16 15 -25 36 -25 55 0 19 9 40 25 55 15 16 36 25 55 25 19 0 40 -9 55
-25z"/>
<path d="M2160 4160 l0 -80 80 0 80 0 0 80 0 80 -80 0 -80 0 0 -80z"/>
<path d="M2800 4160 l0 -80 80 0 80 0 0 80 0 80 -80 0 -80 0 0 -80z"/>
<path d="M1280 3680 l0 -80 80 0 80 0 0 80 0 80 -80 0 -80 0 0 -80z"/>
<path d="M3680 3680 l0 -80 80 0 80 0 0 80 0 80 -80 0 -80 0 0 -80z"/>
<path d="M4080 2880 l0 -80 80 0 80 0 0 80 0 80 -80 0 -80 0 0 -80z"/>
<path d="M880 2560 l0 -80 80 0 80 0 0 80 0 80 -80 0 -80 0 0 -80z"/>
<path d="M4240 2240 l0 -80 80 0 80 0 0 80 0 80 -80 0 -80 0 0 -80z"/>
<path d="M1280 1440 l0 -80 80 0 80 0 0 80 0 80 -80 0 -80 0 0 -80z"/>
<path d="M3680 1440 l0 -80 80 0 80 0 0 80 0 80 -80 0 -80 0 0 -80z"/>
<path d="M2800 960 l0 -80 80 0 80 0 0 80 0 80 -80 0 -80 0 0 -80z"/>
<path d="M2160 720 l0 -80 80 0 80 0 0 80 0 80 -80 0 -80 0 0 -80z"/>
</g>
</svg>
