<?xml version="1.0" standalone="no"?>
<!DOCTYPE svg PUBLIC "-//W3C//DTD SVG 20010904//EN"
 "http://www.w3.org/TR/2001/REC-SVG-20010904/DTD/svg10.dtd">
<svg version="1.0" xmlns="http://www.w3.org/2000/svg"
 width="512.000000pt" height="512.000000pt" viewBox="0 0 512.000000 512.000000"
 preserveAspectRatio="xMidYMid meet">

<g transform="translate(0.000000,512.000000) scale(0.100000,-0.100000)"
fill="#000000" stroke="none">
<path d="M354 4661 c-166 -47 -294 -182 -339 -356 -13 -52 -15 -264 -15 -1745
0 -1842 -3 -1735 57 -1860 32 -65 131 -168 193 -200 24 -12 69 -31 99 -41 52
-18 127 -19 2211 -19 2084 0 2159 1 2211 19 30 10 75 29 99 41 61 31 159 133
192 200 61 123 58 16 58 1860 0 1844 3 1737 -58 1860 -32 65 -119 155 -185
194 -27 15 -79 37 -115 47 -65 18 -132 19 -2207 18 -2005 0 -2144 -2 -2201
-18z m4380 -245 c50 -25 97 -72 122 -122 17 -35 19 -66 22 -311 l3 -273 -2321
0 -2321 0 3 273 c3 306 5 315 81 389 74 72 -97 67 2252 65 2075 -2 2121 -2
2159 -21z m141 -2251 l0 -1300 -25 -49 c-28 -54 -66 -91 -125 -117 -38 -18
-130 -19 -2166 -19 l-2127 0 -53 28 c-66 34 -114 94 -128 162 -12 56 -16 2581
-4 2593 3 4 1046 6 2317 5 l2311 -3 0 -1300z"/>
<path d="M3397 4294 c-4 -4 -7 -101 -7 -215 0 -208 0 -209 23 -214 12 -3 119
-4 237 -3 l215 3 0 215 0 215 -231 3 c-127 1 -233 -1 -237 -4z"/>
<path d="M4155 4287 c-3 -7 -4 -105 -3 -217 l3 -205 215 -3 c118 -1 225 0 238
3 l22 5 -2 213 -3 212 -233 3 c-183 2 -234 0 -237 -11z"/>
<path d="M1734 2752 c-17 -9 -227 -147 -466 -305 -272 -180 -440 -298 -449
-314 -19 -35 -15 -97 7 -127 26 -36 921 -625 960 -632 44 -8 97 19 119 60 20
37 17 105 -7 133 -7 9 -179 126 -382 260 -207 137 -365 248 -360 253 5 4 169
114 365 242 195 129 365 248 378 264 34 43 26 117 -18 156 -37 33 -97 37 -147
10z"/>
<path d="M2845 2761 c-11 -5 -27 -17 -36 -27 -9 -11 -170 -286 -359 -613 -225
-391 -344 -607 -347 -630 -13 -106 128 -171 202 -93 38 41 706 1202 712 1239
15 89 -84 160 -172 124z"/>
<path d="M3254 2736 c-28 -28 -34 -41 -34 -77 0 -25 8 -56 18 -72 10 -16 163
-123 377 -263 198 -130 364 -240 369 -245 5 -4 -157 -117 -361 -252 -204 -134
-377 -255 -387 -268 -23 -34 -21 -110 5 -142 23 -30 86 -53 121 -44 31 8 917
591 945 623 31 34 39 84 19 127 -13 25 -45 53 -124 104 -59 39 -268 177 -465
307 -335 220 -362 236 -404 236 -38 0 -50 -5 -79 -34z"/>
</g>
</svg>
